<?xml version="1.0" encoding="UTF-8" standalone="no"?>
<!DOCTYPE svg PUBLIC "-//W3C//DTD SVG 1.1//EN" "http://www.w3.org/Graphics/SVG/1.1/DTD/svg11.dtd">
<svg width="100%" height="100%" viewBox="0 0 171 171" version="1.1" xmlns="http://www.w3.org/2000/svg" xmlns:xlink="http://www.w3.org/1999/xlink" xml:space="preserve" xmlns:serif="http://www.serif.com/" style="fill-rule:evenodd;clip-rule:evenodd;stroke-linejoin:round;stroke-miterlimit:1.41421;">
    <g transform="matrix(1,0,0,1,-699.559,-135.481)">
        <g>
            <g transform="matrix(1.05293,0,0,1.05293,-41.4181,-4.86816)">
                <rect x="703.726" y="133.293" width="161.78" height="161.78" style="fill:rgb(5,0,108);"/>
                <clipPath id="_clip1">
                    <rect x="703.726" y="133.293" width="161.78" height="161.78"/>
                </clipPath>
                <g clip-path="url(#_clip1)">
                    <g transform="matrix(0.949727,0,0,0.949727,31.4838,-121.382)">
                        <g>
                            <circle cx="856.577" cy="438.5" r="80.017" style="fill:rgb(92,83,255);"/>
                            <clipPath id="_clip2">
                                <circle cx="856.577" cy="438.5" r="80.017"/>
                            </clipPath>
                            <g clip-path="url(#_clip2)">
                                <g transform="matrix(1,0,0,1,302.507,19.9654)">
                                    <path d="M482.996,386.782C466.38,398.166 473.893,417.842 471.036,434.11C469.351,443.7 461.018,452.429 458.582,462.073C457.252,467.338 457.025,481.087 462.862,484.005C481.676,493.412 479.419,463.581 494.036,456.173C502.645,451.811 528.355,458.275 530.1,456.384C533.073,453.163 535.864,431.937 533.344,426.897C532.517,425.244 523.357,415.404 525.448,413.68C530.252,409.72 535.638,406.584 539.786,402.38C553.562,388.417 547.217,345.732 539.588,330.476C531.385,314.069 512.244,317.118 504.83,331.75C497.352,346.507 531.668,355.729 524.38,371.201C520.208,380.06 509.333,371.018 504.309,376.288C502.814,377.857 500.259,380.212 498.796,380.985C497.655,381.588 495.475,382.645 497.49,382.645" style="fill:rgb(0,164,5);"/>
                                </g>
                            </g>
                        </g>
                    </g>
                </g>
            </g>
            <g transform="matrix(0.5,-0.866025,0.716805,0.413847,225.812,839.166)">
                <g transform="matrix(1.28793,0,0,1.16399,186.484,-124.703)">
                    <path d="M490.797,189.371C490.797,189.371 461.807,293.967 461.807,338.793C461.807,360.183 474.797,377.548 490.797,377.548C506.798,377.548 519.788,360.183 519.788,338.793C519.788,293.967 490.797,189.371 490.797,189.371Z" style="fill:rgb(255,119,119);"/>
                </g>
                <g transform="matrix(1.10648,0,0,1,275.541,-62.7876)">
                    <path d="M490.797,189.371C490.797,189.371 461.807,293.967 461.807,338.793C461.807,360.183 474.797,377.548 490.797,377.548C506.798,377.548 519.788,360.183 519.788,338.793C519.788,293.967 490.797,189.371 490.797,189.371Z" style="fill:rgb(255,191,82);"/>
                </g>
                <g transform="matrix(1,0,0,1,88.1004,-8.20077)">
                    <circle cx="730.498" cy="288.224" r="26.537" style="fill:rgb(254,255,212);"/>
                </g>
            </g>
            <g transform="matrix(1,0,0,1,347.402,-99.2741)">
                <circle cx="390.916" cy="250.05" r="3.923" style="fill:white;"/>
            </g>
            <g transform="matrix(0.626869,0,0,0.612309,574.893,22.1852)">
                <circle cx="390.916" cy="250.05" r="3.923" style="fill:white;"/>
            </g>
            <g transform="matrix(1.57419,0,0,1.57419,226.757,-249.027)">
                <circle cx="390.916" cy="250.05" r="3.923" style="fill:white;"/>
            </g>
            <g transform="matrix(1,0,0,1,334.655,4.27053)">
                <circle cx="390.916" cy="250.05" r="3.923" style="fill:white;"/>
            </g>
            <g transform="matrix(1.28494,0,0,1.1944,244.938,-4.41531)">
                <circle cx="390.916" cy="250.05" r="3.923" style="fill:white;"/>
            </g>
        </g>
    </g>
</svg>
